<mxfile host="app.diagrams.net" modified="2023-08-30T15:11:02.926Z" agent="Mozilla/5.0 (X11; Ubuntu; Linux x86_64; rv:109.0) Gecko/20100101 Firefox/113.0" version="21.7.0" etag="Rkv_Ke54t48A9vq0RJUS" type="github">
  <diagram name="1 oldal" id="QzZX0ZPK66TgsplVBVPe">
    <mxGraphModel>
      <root>
        <mxCell id="0" />
        <mxCell id="1" parent="0" />
      </root>
    </mxGraphModel>
  </diagram>
</mxfile>
